<svg width="268" height="108" xmlns="http://www.w3.org/2000/svg" preserveAspectRatio="xMidYMid meet">
 <metadata>Created by potrace 1.10, written by Peter Selinger 2001-2011</metadata>

 <g>
  <title>Layer 1</title>
  <path fill="#0a0ace" id="svg_2" d="m102.66831,55.5c0,41.7 0.08095,44.5 1.45714,44.5c1.29524,0 1.37619,-2.8 1.37619,-44.5c0,-41.7 -0.08095,-44.5 -1.37619,-44.5c-1.37619,0 -1.45714,2.8 -1.45714,44.5z"/>
  <g id="svg_39">
   <g id="svg_13">
    <path id="svg_12" fill="#9dc6fb" d="m85.18178,81.55683c-2.95761,0 -2.95761,-2.27572 -5.91521,-2.27572c-2.95727,0 -2.95727,2.27572 -5.91438,2.27572c-2.95727,0 -2.95727,-2.27572 -5.91455,-2.27572c-2.26523,0 -2.79634,1.33442 -4.24974,1.95939l27.90909,15.67736l0,-17.63675c-2.95761,0 -2.95761,2.27572 -5.91521,2.27572z"/>
   </g>
   <g id="svg_15">
    <path id="svg_14" fill="#80b4fb" d="m91.09699,92.67974l-23.84645,-13.39525c-2.10846,0.07153 -2.6504,1.34869 -4.06265,1.95582l27.90909,15.67736l0,-4.23793z"/>
   </g>
   <g id="svg_17">
    <path id="svg_16" fill="#f1d59d" d="m58.109,78.38749c-14.22977,-7.99319 -30.81955,-8.71991 -45.55694,-1.99543l-4.2534,1.9408l0,18.58481l82.79833,0l-32.98799,-18.53018z"/>
   </g>
   <g id="svg_19">
    <path id="svg_18" fill="#ecc373" d="m33.63065,96.91767l57.46634,0l-32.98799,-18.53018c-1.79642,-1.00907 -3.63066,-1.90213 -5.49389,-2.67916c-2.35202,9.79488 -9.5627,17.73493 -18.98446,21.20934z"/>
   </g>
   <g id="svg_29">
    <g id="svg_28">
     <g id="svg_21">
      <path id="svg_20" fill="#e28086" d="m68.42955,48.62889c-1.26348,-13.24188 -12.48749,-26.90634 -25.2327,-30.44627s-28.31859,2.68179 -34.8982,13.74519l60.1309,16.70108z"/>
     </g>
     <g id="svg_23">
      <path id="svg_22" fill="#dd636e" d="m52.8157,27.29959c-1.41991,6.49149 -6.5931,11.18993 -13.50457,13.24169l29.11843,8.08743c-0.91629,-9.60264 -7.07123,-19.42642 -15.24518,-25.4514c0.04681,1.37985 -0.07064,2.75933 -0.36868,4.12228z"/>
     </g>
     <g id="svg_25">
      <path id="svg_24" fill="#f9f6f9" d="m43.19702,18.18262c3.60184,1.00044 5.21367,11.99513 3.66398,24.45565l12.74505,3.53993c-0.11262,-12.92216 -7.40426,-25.49458 -16.40903,-27.99558s-20.64611,4.81277 -26.07469,16.19588l12.74522,3.53993c3.76627,-11.84475 9.72763,-20.73625 13.32947,-19.73581z"/>
     </g>
     <g id="svg_27">
      <path id="svg_26" fill="#dfdde2" d="m53.07892,25.73388c-0.06231,0.52378 -0.1496,1.04606 -0.26322,1.5659c-0.78184,3.57485 -2.70288,6.60507 -5.42458,8.95007c-0.08347,2.05344 -0.25773,4.19831 -0.53011,6.38862l12.74505,3.53993c-0.06614,-7.59369 -2.61208,-15.06534 -6.52713,-20.44451z"/>
     </g>
    </g>
   </g>
   <g id="svg_38">
    <path id="svg_30" d="m88.84392,81.5818c0.67355,-0.51815 1.16019,-0.89268 2.25307,-0.89268c0.69005,0 1.24948,-0.63041 1.24948,-1.40801s-0.55943,-1.40801 -1.24948,-1.40801c-1.86473,0 -2.86148,0.7669 -3.66215,1.38304c-0.67355,0.51815 -1.16019,0.89268 -2.25307,0.89268c-1.09305,0 -1.57951,-0.37453 -2.25307,-0.89268c-0.80083,-0.61615 -1.79742,-1.38304 -3.66215,-1.38304c-1.86456,0 -2.86115,0.7669 -3.66181,1.38323c-0.67339,0.51815 -1.15985,0.89249 -2.25257,0.89249s-1.57935,-0.37434 -2.25273,-0.89268c-0.80083,-0.61615 -1.79725,-1.38304 -3.66181,-1.38304s-2.86165,0.76652 -3.66265,1.38248c-0.20075,0.15432 -0.38667,0.29474 -0.57576,0.4179l-4.53262,-2.54606c-7.96237,-4.47259 -16.77371,-6.74268 -25.61021,-6.69763l6.22209,-28.44727l10.65208,2.95851c0.67039,0.18623 1.34711,-0.27503 1.51221,-1.0301s-0.24423,-1.51802 -0.91412,-1.70407l-2.28389,-0.63436c0.62274,-5.73286 0.60775,-11.26296 -0.05148,-15.69238c-0.2379,-1.59875 -0.5526,-2.99906 -0.93811,-4.19456c5.94653,4.23455 10.44167,13.20039 11.03559,22.67705l-2.06698,-0.57409c-0.67022,-0.18605 -1.34694,0.27503 -1.51221,1.0301c-0.1651,0.75507 0.24423,1.51802 0.91412,1.70407l12.50498,3.47328c0.09896,0.02741 0.19925,0.04093 0.29888,0.04093c0.29904,0 0.59209,-0.12109 0.82233,-0.34768c0.30687,-0.30225 0.46381,-0.75413 0.42016,-1.21089c-0.64123,-6.72034 -3.70913,-13.70596 -8.63875,-19.67048c-4.61525,-5.58417 -10.3732,-9.67473 -16.33023,-11.62679l0.51262,-2.34406c0.1651,-0.75507 -0.24423,-1.51802 -0.91412,-1.70407c-0.66989,-0.18548 -1.34711,0.27503 -1.51221,1.0301l-0.51279,2.34406c-6.07981,-1.39112 -12.86517,-0.78436 -19.25468,1.74331c-6.8245,2.69981 -12.42202,7.27885 -15.76113,12.89363c-0.22691,0.38148 -0.27439,0.86377 -0.12728,1.29218s0.47047,0.74887 0.86614,0.85889l28.85237,8.01346l-6.38702,29.2014c-2.95927,0.16727 -5.91238,0.59249 -8.82834,1.2873c-0.67522,0.16089 -1.10671,0.90807 -0.9641,1.66877s0.80483,1.24675 1.48089,1.08642c2.53995,-0.60526 5.10955,-0.99725 7.68615,-1.18348l-1.24898,5.71071c-1.24332,0.2281 -2.3207,1.01809 -3.02108,2.13041c-0.31054,-0.07322 -0.62807,-0.11302 -0.94677,-0.11302c-2.54478,0 -4.61525,2.33317 -4.61525,5.20082c0,0.7776 0.55943,1.40801 1.24948,1.40801s1.24948,-0.63041 1.24948,-1.40801c0,-1.31489 0.94944,-2.3848 2.11629,-2.3848c0.03532,0 0.06964,0.00488 0.10462,0.00676c-0.00483,0.09668 -0.00766,0.19393 -0.00766,0.29193c0,0.7776 0.55943,1.40801 1.24948,1.40801s1.24948,-0.63041 1.24948,-1.40801c0,-1.31489 0.94944,-2.3848 2.11629,-2.3848s2.11629,1.0699 2.11629,2.3848c0,0.7776 0.55943,1.40801 1.24948,1.40801s1.24948,-0.63041 1.24948,-1.40801c0,-0.098 -0.003,-0.19524 -0.00766,-0.29193c0.03499,-0.00188 0.0693,-0.00676 0.10462,-0.00676c1.16685,0 2.11629,1.0699 2.11629,2.3848c0,0.7776 0.55943,1.40801 1.24948,1.40801s1.24948,-0.63041 1.24948,-1.40801c0,-2.86765 -2.07047,-5.20082 -4.61525,-5.20082c-0.3187,0 -0.63624,0.0398 -0.94677,0.11302c-0.50146,-0.79637 -1.196,-1.42772 -2.00667,-1.80582l1.34594,-6.15357c8.65791,-0.15732 17.31132,2.01477 25.11242,6.39706l19.79229,11.11803c0.17909,0.10063 0.36918,0.14812 0.55644,0.14812c0.45881,0 0.90063,-0.28592 1.1192,-0.78004c0.30787,-0.69593 0.05681,-1.5413 -0.56077,-1.88842l-12.65792,-7.11027c0.43165,-0.27297 0.8943,-0.44587 1.63649,-0.44587c1.09271,0 1.57918,0.37434 2.25257,0.89249c0.80083,0.61633 1.79742,1.38323 3.66198,1.38323s2.86098,-0.7669 3.66181,-1.38304c0.67339,-0.51834 1.15985,-0.89268 2.25257,-0.89268c1.09288,0 1.57951,0.37453 2.25307,0.89268c0.80083,0.61615 1.79742,1.38304 3.66215,1.38304c1.86456,-0.00019 2.86115,-0.76708 3.66198,-1.38323zm-57.31823,-44.65291c3.96202,-11.66678 9.21168,-17.9818 11.37228,-17.37899c2.1606,0.6 4.20576,8.93862 2.9028,21.34395l-14.27508,-3.96496zm-12.48982,-3.46896c4.43399,-8.08029 12.11198,-13.66522 19.12357,-14.30051c-0.83449,0.85663 -1.69063,1.9316 -2.5606,3.22284c-2.41033,3.57672 -4.70405,8.46553 -6.51696,13.86797l-10.046,-2.7903zm47.87881,13.29801l-6.08581,-1.69036c-0.23707,-6.17328 -2.01267,-12.3721 -5.04907,-17.56935c-0.18726,-0.32046 -0.37934,-0.63285 -0.5736,-0.94149c5.9457,5.32698 10.41118,12.73668 11.70848,20.20121zm-37.80466,-27.44908c-0.29921,0.17159 -0.59825,0.3475 -0.89613,0.53317c-4.83183,3.01183 -8.95945,7.57135 -11.71514,12.91315l-6.08698,-1.69055c4.22675,-5.93017 11.23651,-10.1527 18.69825,-11.75577z"/>
    <path id="svg_31" d="m91.65442,95.65759l-7.94637,-4.46377c-0.61774,-0.34712 -1.36777,-0.06383 -1.67581,0.63192c-0.30787,0.69612 -0.05681,1.5413 0.56077,1.88842l7.94637,4.46377c0.17909,0.10063 0.36918,0.14812 0.55644,0.14812c0.45881,0 0.90063,-0.28592 1.1192,-0.78004c0.30804,-0.69612 0.05698,-1.54149 -0.5606,-1.88842z"/>
    <path id="svg_32" d="m15.87785,73.53023c-1.27514,0.46596 -2.55178,0.98974 -3.79476,1.55688l-4.2534,1.9408c-0.63957,0.29193 -0.94811,1.1127 -0.68921,1.83361c0.19675,0.54762 0.66456,0.87991 1.15852,0.87991c0.1561,0 0.31487,-0.03323 0.46847,-0.10325l4.25357,-1.9408c1.18817,-0.54218 2.40867,-1.04287 3.62766,-1.48836c0.65639,-0.23993 1.01608,-1.03404 0.80317,-1.77372c-0.21275,-0.73968 -0.91729,-1.14481 -1.57401,-0.90507z"/>
    <path id="svg_33" d="m49.09607,82.12566c0,-0.7776 -0.55943,-1.40801 -1.24948,-1.40801l-1.6828,0c-0.69005,0 -1.24948,0.63041 -1.24948,1.40801s0.55943,1.40801 1.24948,1.40801l1.6828,0c0.69005,0 1.24948,-0.63041 1.24948,-1.40801z"/>
    <path id="svg_34" d="m51.54905,90.57917l-1.68297,0c-0.69005,0 -1.24948,0.63041 -1.24948,1.40801s0.55943,1.40801 1.24948,1.40801l1.6828,0c0.69005,0 1.24948,-0.63041 1.24948,-1.40801s-0.55927,-1.40801 -1.24932,-1.40801z"/>
    <path id="svg_35" d="m68.37791,90.19976l-1.6828,0c-0.69005,0 -1.24948,0.63041 -1.24948,1.40801s0.55943,1.40801 1.24948,1.40801l1.6828,0c0.69005,0 1.24948,-0.63041 1.24948,-1.40801s-0.55943,-1.40801 -1.24948,-1.40801z"/>
    <path id="svg_36" d="m14.52541,88.87229l-1.68297,0c-0.69005,0 -1.24948,0.63041 -1.24948,1.40801s0.55943,1.40801 1.24948,1.40801l1.6828,0c0.69005,0 1.24948,-0.63041 1.24948,-1.40801s-0.55927,-1.40801 -1.24932,-1.40801z"/>
    <path id="svg_37" d="m33.20549,90.9584l-1.6828,0c-0.69005,0 -1.24948,0.63041 -1.24948,1.40801s0.55943,1.40801 1.24948,1.40801l1.6828,0c0.69005,0 1.24948,-0.63041 1.24948,-1.40801s-0.55943,-1.40801 -1.24948,-1.40801z"/>
   </g>
  </g>
  <g id="svg_45">
   <path fill="#002347" id="svg_4" d="m137.5,16.9c-13.9,6.4 -24.8,26.4 -18.5,34.3c3.8,4.9 11.6,3.3 19.2,-3.9l3.6,-3.5l-0.1,3.3c-0.2,4 2.3,5.1 5.4,2.3c1.8,-1.7 2,-1.7 3.4,0.2c1.3,1.8 1.6,1.8 4.4,0.2c2.5,-1.4 3,-1.4 3.5,-0.2c0.8,2.1 4,1.7 6.2,-0.7l1.8,-2l0.8,2c0.9,2.5 3.5,2.7 6,0.4c1.7,-1.5 1.9,-1.5 3.2,0.2c1.2,1.6 1.8,1.7 4,0.7c1.6,-0.7 2.8,-0.8 3.1,-0.2c1.1,1.7 6.2,1.1 9,-1.2c2.5,-2 2.7,-2.5 2.1,-7.4c-0.4,-3.1 -0.2,-5.5 0.4,-5.9c0.5,-0.3 1,-1.1 1,-1.7c0,-1.8 -5,3.3 -5,5.1c0,0.9 -0.7,2.5 -1.5,3.5c-0.8,1.1 -1.5,2.7 -1.4,3.5c0,1.1 0.4,0.8 1.1,-0.7c1.2,-2.5 2.8,-2.9 2.8,-0.8c0,1.9 -2.7,4.6 -4.6,4.6c-1.2,0 -1.3,-0.8 -0.8,-3.5c0.7,-3.7 -1,-5 -2.1,-1.6c-0.3,1 -1.5,2.6 -2.5,3.6c-3.5,3.2 -4.1,0.5 -1.5,-6c3.3,-8 3.3,-8.3 -1.6,-8.1c-4.4,0.2 -5.3,1 -12.2,10.5c-3.5,4.8 -5.7,6.2 -5.7,3.6c0,-0.9 2.5,-7.3 5.5,-14.1c3,-6.9 5.5,-12.7 5.5,-12.9c0,-0.3 -0.6,-0.5 -1.4,-0.5c-0.7,0 -3.8,5.5 -7,12.7c-5.9,13.2 -8.8,17.5 -10.5,15.8c-0.7,-0.7 -0.1,-3.2 1.4,-7c3.3,-8 3.2,-8.3 -1.5,-8.1c-3.5,0.2 -4.7,1 -11.2,7.9c-14,14.7 -23.8,14.9 -20.4,0.6c1.5,-6.8 5.3,-13.2 10.8,-18.6c4.5,-4.4 8.8,-6.6 11.2,-5.7c3.8,1.5 2.4,7.4 -2.5,10.3c-3.5,2.1 -2.4,3.6 1.5,2.1c3,-1.1 6.6,-6.4 6.6,-9.7c0,-2.3 -3.4,-5.3 -6,-5.3c-0.8,0 -3.3,0.9 -5.5,1.9zm14.5,20.1c0,3.7 -5,12 -7.3,12c-1.6,0 0.1,-6.1 2.8,-10.2c2.8,-4.2 4.5,-4.9 4.5,-1.8zm26,0c0,3.7 -5,12 -7.3,12c-1.6,0 0.1,-6.1 2.8,-10.2c2.8,-4.2 4.5,-4.9 4.5,-1.8z"/>
   <path fill="#002347" id="svg_5" d="m227.7,18.5c-5.7,2.1 -9.6,5.3 -12.8,10.3c-3.2,5 -3.8,10.2 -1.4,12.2c1.3,1.1 1.5,0.7 1.5,-2.4c0,-9.3 10.2,-19.6 19.4,-19.6c4.8,0 6.5,0.8 8.1,4.1c5.4,10.3 -6.5,29.9 -18.2,29.9c-2.2,0 -2.5,0.2 -1.3,1c1.7,1.1 7.3,0.3 11.2,-1.6c8.6,-4.4 15.8,-22.9 11.8,-30.5c-2.5,-4.6 -10.8,-6.1 -18.3,-3.4z"/>
   <path fill="#002347" id="svg_6" d="m230.5,26.2c-1.7,1.3 -4.8,6.4 -7.7,12.6c-2.7,5.8 -6.1,11.5 -7.4,12.7c-1.4,1.3 -2.1,2.6 -1.6,2.9c2.1,1.3 6.6,-4.2 11.8,-14.5c3,-6 6.3,-11.7 7.4,-12.7c4.1,-3.4 1.8,-4.4 -2.5,-1z"/>
   <path fill="#002347" id="svg_7" d="m252.2,35.6c-2.8,1.9 -6.2,8.5 -6.2,11.8c0,5.4 6.8,5.1 12.7,-0.6c5,-4.9 3.9,-5.5 -1.4,-0.8c-5,4.4 -7.6,4.8 -8.1,1.2c-0.3,-1.8 0.4,-2.6 3.2,-3.7c3.6,-1.5 7.2,-6.7 6.1,-8.5c-0.9,-1.5 -3.8,-1.2 -6.3,0.6zm4.8,0.9c0,1.7 -3.5,5.5 -5,5.5c-1.6,0 -1.2,-1.4 1.5,-4.3c2.9,-3.1 3.5,-3.3 3.5,-1.2z"/>
  </g>
  <g id="svg_47">
   <path fill="#0762bc" id="svg_8" d="m132.5,59.5c-9.9,3.7 -17.5,14.2 -14.9,20.9c1,2.6 2.4,1.8 2.4,-1.3c0,-4.2 1.4,-7.3 5.1,-11.5c8.3,-9.5 22.3,-10.3 20.5,-1.3c-0.4,1.7 -2.4,7 -4.6,11.7c-4.2,9.1 -5.1,14 -2.5,14c0.9,0 1.5,-1 1.5,-2.6c0,-3.5 6.5,-16.6 10,-19.9c1.5,-1.5 3.6,-2.5 4.7,-2.3c3.2,0.6 2.7,5.2 -1.6,14.4c-4.3,9 -5.1,13.8 -2.7,14.7c1.1,0.4 1.4,-0.2 1.4,-2.2c-0.1,-1.5 1.8,-6.9 4.1,-11.9c5,-10.8 5.2,-15.1 0.9,-16.6c-2.3,-0.8 -3.4,-0.6 -5.8,1.2l-3,2.3l0,-3c0,-6.6 -7.2,-9.6 -15.5,-6.6z"/>
   <path fill="#0762bc" id="svg_9" d="m180.6,72.7c-5.9,13.2 -8.8,17.5 -10.5,15.8c-0.7,-0.7 -0.1,-3.2 1.4,-7c3.3,-8 3.2,-8.3 -1.5,-8.1c-4.5,0.2 -7.4,2.4 -10.2,7.9c-3.5,6.9 -0.6,12.5 4.3,8.1c1.8,-1.7 2,-1.7 3.4,0.2c1.3,1.8 1.6,1.8 4.4,0.2c2.5,-1.4 3,-1.4 3.5,-0.2c0.8,2.1 4,1.7 6.2,-0.7l1.8,-2l0.8,2c1,2.7 3.6,2.7 6.5,-0.1l2.3,-2.1l0,2.1c0,1.7 0.6,2.2 2.4,2.2c5.4,0 12.7,-13.3 9.2,-16.8c-1.4,-1.5 -1.8,-1.4 -4.3,0.4c-1.6,1.2 -3.8,3.6 -5,5.5c-5.3,8.2 -8.3,10.9 -8.3,7.3c0,-0.9 2.5,-7.2 5.5,-14c3,-6.9 5.5,-12.7 5.5,-12.9c0,-0.3 -0.6,-0.5 -1.3,-0.5c-0.8,0 -3.7,5 -6.5,11.2c-5,11 -9.3,17.8 -11.2,17.8c-1.9,0 -0.9,-3.3 4.5,-15.6c3,-6.9 5.5,-12.7 5.5,-12.9c0,-0.3 -0.6,-0.5 -1.4,-0.5c-0.7,0 -3.8,5.5 -7,12.7zm-11.9,5.9c-0.6,3.7 -5,10.4 -6.9,10.4c-1.7,0 -0.1,-6 2.7,-10.2c3.2,-4.9 4.9,-5 4.2,-0.2zm35,0.6c-0.8,3.1 -4.8,9 -6.4,9.6c-2.4,0.7 -1.4,-4.3 1.8,-9.2c2.1,-3.5 3.3,-4.6 4.1,-3.8c0.6,0.6 0.8,2.1 0.5,3.4z"/>
   <path fill="#0762bc" id="svg_10" d="m134.5,67.7c-1.5,1.6 -4.7,6.8 -7,11.8c-2.3,5 -5.4,10.5 -6.9,12.2c-1.9,2.2 -2.3,3.3 -1.4,3.3c2.5,0 6.5,-5.3 11.3,-15c2.6,-5.2 5.9,-10.7 7.3,-12.3c1.9,-2 2.2,-2.7 1,-2.7c-0.8,0 -2.8,1.2 -4.3,2.7z"/>
   <path fill="#0762bc" id="svg_11" d="m209.6,69.7c-0.3,0.3 -0.6,1.7 -0.6,3c0,1.3 -0.9,4.2 -2.1,6.4c-1.1,2.3 -1.8,4.3 -1.5,4.6c0.2,0.3 1.4,-1.3 2.6,-3.6c2.1,-4.3 2.9,-4.8 4.7,-3c0.8,0.8 0.6,2.4 -0.5,5.9c-0.8,2.6 -1.2,5.5 -0.9,6.4c0.9,2.2 4,2 6.2,-0.4l1.8,-2l1.4,2c1.8,2.5 4.7,2.5 8.8,0l3.3,-2l0.5,2c0.6,2.5 3.4,2.6 6,0.3c1.8,-1.7 1.9,-1.7 2.8,0c0.6,0.9 1.7,1.7 2.6,1.7c1.8,0 8.3,-6.5 8.3,-8.3c0,-0.7 -1.6,0.6 -3.4,2.8c-4.9,5.7 -6.2,3.8 -3.1,-4c3.3,-8 3.2,-8.3 -1.5,-8.1c-4.5,0.2 -7.4,2.4 -10.1,7.8c-2.8,5.5 -9.6,9.7 -11.3,7c-1.4,-2.3 3.9,-13.2 6.4,-13.2c0.5,0 1,0.8 1.3,1.7c0.4,1.7 0.4,1.7 1.2,0c0.4,-1.1 0.3,-2.3 -0.4,-3c-1.8,-1.8 -6.1,1.1 -9.8,6.8c-6.7,10.1 -9.8,11.1 -7,2.1c2.2,-6.9 2.2,-7.5 -0.8,-8.6c-1.4,-0.5 -2.5,-1.6 -2.5,-2.4c0,-1.7 -1.4,-2.8 -2.4,-1.9zm34.1,8.9c-0.6,3.7 -5,10.4 -6.9,10.4c-1.7,0 -0.1,-6 2.7,-10.2c3.2,-4.9 4.9,-5 4.2,-0.2z"/>
  </g>
 </g>
</svg>