<?xml version="1.0" standalone="no"?>
<!DOCTYPE svg PUBLIC "-//W3C//DTD SVG 20010904//EN"
 "http://www.w3.org/TR/2001/REC-SVG-20010904/DTD/svg10.dtd">
<svg version="1.0" xmlns="http://www.w3.org/2000/svg"
 width="268.000000pt" height="108.000000pt" viewBox="0 0 268.000000 108.000000"
 preserveAspectRatio="xMidYMid meet">
<metadata>
Created by potrace 1.10, written by Peter Selinger 2001-2011
</metadata>
<g transform="translate(0.000000,108.000000) scale(0.100000,-0.100000)"
fill="#000000" stroke="none">
<path d="M900 525 c0 -417 1 -445 18 -445 16 0 17 28 17 445 0 417 -1 445 -17
445 -17 0 -18 -28 -18 -445z"/>
<path d="M292 911 c-138 -48 -228 -183 -239 -358 -10 -150 31 -277 113 -353
71 -65 123 -84 229 -85 86 0 93 2 159 38 74 41 96 42 96 2 0 -16 6 -25 15 -25
13 0 15 22 15 135 0 113 -2 135 -15 135 -8 0 -15 -8 -15 -18 0 -41 -33 -139
-57 -170 -54 -71 -195 -100 -278 -56 -89 46 -144 161 -152 320 -10 178 27 305
109 381 35 32 57 43 93 49 70 10 144 -10 194 -52 49 -42 67 -74 82 -144 7 -31
16 -50 25 -50 11 0 14 24 14 125 0 104 -2 125 -15 125 -9 0 -15 -9 -15 -24 0
-44 -21 -47 -80 -10 -88 54 -187 67 -278 35z m-102 -121 c-35 -69 -51 -149
-51 -261 0 -58 3 -123 7 -145 9 -51 48 -140 80 -181 37 -49 11 -40 -46 16 -70
69 -104 160 -109 293 -2 59 26 176 55 227 22 37 68 89 82 91 1 0 -7 -18 -18
-40z m452 -572 c-8 -8 -9 -4 -5 13 4 13 8 18 11 10 2 -7 -1 -18 -6 -23z"/>
<path d="M1375 911 c-139 -64 -248 -264 -185 -343 38 -49 116 -33 192 39 l36
35 -1 -33 c-2 -40 23 -51 54 -23 18 17 20 17 34 -2 13 -18 16 -18 44 -2 25 14
30 14 35 2 8 -21 40 -17 62 7 l18 20 8 -20 c9 -25 35 -27 60 -4 17 15 19 15
32 -2 12 -16 18 -17 40 -7 16 7 28 8 31 2 11 -17 62 -11 90 12 25 20 27 25 21
74 -4 31 -2 55 4 59 5 3 10 11 10 17 0 18 -50 -33 -50 -51 0 -9 -7 -25 -15
-35 -8 -11 -15 -27 -14 -35 0 -11 4 -8 11 7 12 25 28 29 28 8 0 -19 -27 -46
-46 -46 -12 0 -13 8 -8 35 7 37 -10 50 -21 16 -3 -10 -15 -26 -25 -36 -35 -32
-41 -5 -15 60 33 80 33 83 -16 81 -44 -2 -53 -10 -122 -105 -35 -48 -57 -62
-57 -36 0 9 25 73 55 141 30 69 55 127 55 129 0 3 -6 5 -14 5 -7 0 -38 -55
-70 -127 -59 -132 -88 -175 -105 -158 -7 7 -1 32 14 70 33 80 32 83 -15 81
-35 -2 -47 -10 -112 -79 -140 -147 -238 -149 -204 -6 15 68 53 132 108 186 45
44 88 66 112 57 38 -15 24 -74 -25 -103 -35 -21 -24 -36 15 -21 30 11 66 64
66 97 0 23 -34 53 -60 53 -8 0 -33 -9 -55 -19z m145 -201 c0 -37 -50 -120 -73
-120 -16 0 1 61 28 102 28 42 45 49 45 18z m260 0 c0 -37 -50 -120 -73 -120
-16 0 1 61 28 102 28 42 45 49 45 18z"/>
<path d="M2277 895 c-57 -21 -96 -53 -128 -103 -32 -50 -38 -102 -14 -122 13
-11 15 -7 15 24 0 93 102 196 194 196 48 0 65 -8 81 -41 54 -103 -65 -299
-182 -299 -22 0 -25 -2 -13 -10 17 -11 73 -3 112 16 86 44 158 229 118 305
-25 46 -108 61 -183 34z"/>
<path d="M2305 818 c-17 -13 -48 -64 -77 -126 -27 -58 -61 -115 -74 -127 -14
-13 -21 -26 -16 -29 21 -13 66 42 118 145 30 60 63 117 74 127 41 34 18 44
-25 10z"/>
<path d="M2522 724 c-28 -19 -62 -85 -62 -118 0 -54 68 -51 127 6 50 49 39 55
-14 8 -50 -44 -76 -48 -81 -12 -3 18 4 26 32 37 36 15 72 67 61 85 -9 15 -38
12 -63 -6z m48 -9 c0 -17 -35 -55 -50 -55 -16 0 -12 14 15 43 29 31 35 33 35
12z"/>
<path d="M1325 485 c-99 -37 -175 -142 -149 -209 10 -26 24 -18 24 13 0 42 14
73 51 115 83 95 223 103 205 13 -4 -17 -24 -70 -46 -117 -42 -91 -51 -140 -25
-140 9 0 15 10 15 26 0 35 65 166 100 199 15 15 36 25 47 23 32 -6 27 -52 -16
-144 -43 -90 -51 -138 -27 -147 11 -4 14 2 14 22 -1 15 18 69 41 119 50 108
52 151 9 166 -23 8 -34 6 -58 -12 l-30 -23 0 30 c0 66 -72 96 -155 66z"/>
<path d="M1806 353 c-59 -132 -88 -175 -105 -158 -7 7 -1 32 14 70 33 80 32
83 -15 81 -45 -2 -74 -24 -102 -79 -35 -69 -6 -125 43 -81 18 17 20 17 34 -2
13 -18 16 -18 44 -2 25 14 30 14 35 2 8 -21 40 -17 62 7 l18 20 8 -20 c10 -27
36 -27 65 1 l23 21 0 -21 c0 -17 6 -22 24 -22 54 0 127 133 92 168 -14 15 -18
14 -43 -4 -16 -12 -38 -36 -50 -55 -53 -82 -83 -109 -83 -73 0 9 25 72 55 140
30 69 55 127 55 129 0 3 -6 5 -13 5 -8 0 -37 -50 -65 -112 -50 -110 -93 -178
-112 -178 -19 0 -9 33 45 156 30 69 55 127 55 129 0 3 -6 5 -14 5 -7 0 -38
-55 -70 -127z m-119 -59 c-6 -37 -50 -104 -69 -104 -17 0 -1 60 27 102 32 49
49 50 42 2z m350 -6 c-8 -31 -48 -90 -64 -96 -24 -7 -14 43 18 92 21 35 33 46
41 38 6 -6 8 -21 5 -34z"/>
<path d="M1345 403 c-15 -16 -47 -68 -70 -118 -23 -50 -54 -105 -69 -122 -19
-22 -23 -33 -14 -33 25 0 65 53 113 150 26 52 59 107 73 123 19 20 22 27 10
27 -8 0 -28 -12 -43 -27z"/>
<path d="M2096 383 c-3 -3 -6 -17 -6 -30 0 -13 -9 -42 -21 -64 -11 -23 -18
-43 -15 -46 2 -3 14 13 26 36 21 43 29 48 47 30 8 -8 6 -24 -5 -59 -8 -26 -12
-55 -9 -64 9 -22 40 -20 62 4 l18 20 14 -20 c18 -25 47 -25 88 0 l33 20 5 -20
c6 -25 34 -26 60 -3 18 17 19 17 28 0 6 -9 17 -17 26 -17 18 0 83 65 83 83 0
7 -16 -6 -34 -28 -49 -57 -62 -38 -31 40 33 80 32 83 -15 81 -45 -2 -74 -24
-101 -78 -28 -55 -96 -97 -113 -70 -14 23 39 132 64 132 5 0 10 -8 13 -17 4
-17 4 -17 12 0 4 11 3 23 -4 30 -18 18 -61 -11 -98 -68 -67 -101 -98 -111 -70
-21 22 69 22 75 -8 86 -14 5 -25 16 -25 24 0 17 -14 28 -24 19z m341 -89 c-6
-37 -50 -104 -69 -104 -17 0 -1 60 27 102 32 49 49 50 42 2z"/>
</g>
</svg>
